<?xml version="1.0" encoding="UTF-8" standalone="no"?>
<!-- Created with Inkscape (http://www.inkscape.org/) -->

<svg
   width="32"
   height="32"
   viewBox="0 0 8.4666664 8.4666666"
   version="1.1"
   id="svg1"
   inkscape:version="1.3.2 (091e20e, 2023-11-25)"
   sodipodi:docname="roguelike_tutorial.svg"
   xmlns:inkscape="http://www.inkscape.org/namespaces/inkscape"
   xmlns:sodipodi="http://sodipodi.sourceforge.net/DTD/sodipodi-0.dtd"
   xmlns="http://www.w3.org/2000/svg"
   xmlns:svg="http://www.w3.org/2000/svg">
  <sodipodi:namedview
     id="namedview1"
     pagecolor="#808080"
     bordercolor="#000000"
     borderopacity="0.25"
     inkscape:showpageshadow="2"
     inkscape:pageopacity="0.0"
     inkscape:pagecheckerboard="0"
     inkscape:deskcolor="#d1d1d1"
     inkscape:document-units="mm"
     inkscape:zoom="9.5144352"
     inkscape:cx="22.754898"
     inkscape:cy="24.96207"
     inkscape:window-width="1440"
     inkscape:window-height="900"
     inkscape:window-x="0"
     inkscape:window-y="25"
     inkscape:window-maximized="0"
     inkscape:current-layer="layer1"
     showgrid="true">
    <inkscape:grid
       id="grid1"
       units="px"
       originx="0"
       originy="0"
       spacingx="8.4666665"
       spacingy="8.4666665"
       empcolor="#0099e5"
       empopacity="0.30196078"
       color="#0099e5"
       opacity="0.14901961"
       empspacing="5"
       dotted="false"
       gridanglex="30"
       gridanglez="30"
       visible="true" />
  </sodipodi:namedview>
  <defs
     id="defs1" />
  <g
     inkscape:label="Layer 1"
     inkscape:groupmode="layer"
     id="layer1">
    <path
       d="M 5.8849128,2.0897942 5.3681483,5.3598801 q -0.016536,0.099219 -0.016536,0.1446941 0,0.074414 0.041341,0.1157553 0.041341,0.041341 0.1240235,0.041341 0.1901694,0 0.4299481,-0.1694987 0.355534,-0.248047 0.5829104,-0.7152021 0.2315105,-0.4712893 0.2315105,-1.136882 0,-1.0914067 -0.6283856,-1.7239265 -0.6242516,-0.6325198 -1.6784512,-0.6325198 -0.7772139,0 -1.4180019,0.3720705 -0.6366539,0.3720705 -0.9839197,1.0790043 -0.3431316,0.7069339 -0.3431316,1.562696 0,1.3311854 0.748275,2.1125334 0.7524092,0.7772138 1.9389005,0.7772138 0.5787763,0 1.1120773,-0.1943034 Q 6.0461433,6.7985526 6.5381031,6.4140798 H 7.385597 Q 7.0465994,6.8150891 6.7406748,7.0424655 6.2900562,7.3773289 5.6947434,7.5881688 5.0994307,7.7990087 4.4131674,7.7990087 q -0.9549808,0 -1.7156582,-0.4423504 Q 1.9368318,6.9143078 1.5068837,6.0957528 1.0810697,5.2771978 1.0810697,4.2932782 q 0,-1.0335291 0.4423505,-1.8768888 0.4464845,-0.8474938 1.1823572,-1.2981125 0.7358727,-0.45061867 1.744597,-0.45061867 1.3022467,0 2.1166676,0.82682327 0.818555,0.8268232 0.818555,2.1373381 0,0.7772138 -0.318327,1.4221359 -0.3183269,0.6449222 -0.9343102,1.0211268 -0.4754234,0.2893881 -0.8929692,0.2893881 -0.2480469,0 -0.4051433,-0.1157553 Q 4.6777508,6.1329599 4.6033367,5.8807788 4.326351,6.1494963 4.0989746,6.2611175 q -0.2273764,0.107487 -0.4919599,0.107487 -0.5498374,0 -0.9467126,-0.4588869 Q 2.263427,5.4508307 2.263427,4.5950686 q 0,-1.0128584 0.5084963,-1.8314134 0.5084963,-0.8185551 1.2609054,-0.8185551 0.2935223,0 0.5167645,0.1364259 0.2273764,0.1364258 0.4547528,0.4754233 L 5.0787601,2.0897942 Z M 3.1315914,4.7976403 q 0,0.4919599 0.2108399,0.7648115 0.1570964,0.2025717 0.4010093,0.2025717 0.2645834,0 0.4795575,-0.2232422 0.214974,-0.2273764 0.3762045,-0.9012374 0.1612306,-0.6738609 0.1612306,-1.211296 0,-0.4051434 -0.1736329,-0.6118492 -0.1736329,-0.2067058 -0.4134116,-0.2067058 -0.2728517,0 -0.4795575,0.2067058 Q 3.4168454,3.0943845 3.2721513,3.6979654 3.1315914,4.2974123 3.1315914,4.7976403 Z"
       id="text1"
       style="font-size:8.46667px;font-family:'Arial Black';-inkscape-font-specification:'Arial Black, Normal';stroke-width:0.264583;fill:#ffffff;fill-opacity:1"
       aria-label="@" />
  </g>
</svg>
